 <svg version="1.0" xmlns="http://www.w3.org/2000/svg" width="700.000000pt" height="391.000000pt" viewBox="0 0 700.000000 391.000000" preserveAspectRatio="xMidYMid meet">
<metadata>
Created by potrace 1.12, written by Peter Selinger 2001-2015
</metadata>
<g transform="translate(0.000000,391.000000) scale(0.100000,-0.100000)" fill="#000000" stroke="none">
<path d="M6000 3330 l0 -80 305 0 305 0 0 80 0 80 -305 0 -305 0 0 -80z"></path>
<path d="M3518 3006 c-16 -12 -18 -38 -18 -290 l0 -276 408 2 407 3 0 285 0
285 -390 2 c-313 2 -393 0 -407 -11z m170 -66 c-14 -22 -24 -19 -15 5 4 8 11
15 17 15 6 0 6 -7 -2 -20z m112 -18 c0 -9 -6 -9 -23 3 -13 8 -27 12 -30 8 -4
-3 -7 -1 -7 6 0 7 7 11 15 8 8 -4 17 -1 21 5 7 11 24 -8 24 -30z m-183 6 c-3
-8 -6 -5 -6 6 -1 11 2 17 5 13 3 -3 4 -12 1 -19z m43 1 c0 -5 -4 -9 -10 -9 -5
0 -10 7 -10 16 0 8 5 12 10 9 6 -3 10 -10 10 -16z m70 0 c0 -5 -4 -9 -10 -9
-5 0 -10 7 -10 16 0 8 5 12 10 9 6 -3 10 -10 10 -16z m97 -11 c-3 -7 -5 -2 -5
12 0 14 2 19 5 13 2 -7 2 -19 0 -25z m-107 -93 c0 -17 -2 -17 -10 -5 -9 13
-11 13 -19 0 -11 -17 -26 -7 -18 12 8 23 47 17 47 -7z m36 5 c0 -11 -4 -20 -8
-20 -4 0 -8 9 -8 20 0 11 4 20 8 20 4 0 8 -9 8 -20z m74 -2 c0 -16 -3 -19 -11
-11 -6 6 -8 16 -5 22 11 17 16 13 16 -11z m-180 -10 c0 -6 -6 -5 -15 2 -8 7
-15 14 -15 16 0 2 7 1 15 -2 8 -4 15 -11 15 -16z m-27 -93 c-7 -21 -13 -19
-13 6 0 11 4 18 10 14 5 -3 7 -12 3 -20z m137 4 c0 -11 -4 -17 -10 -14 -5 3
-10 13 -10 21 0 8 5 14 10 14 6 0 10 -9 10 -21z m93 8 c4 3 7 -1 7 -10 0 -9
-4 -17 -10 -17 -5 0 -10 5 -10 11 0 6 -7 9 -15 5 -8 -3 -15 -2 -15 3 0 15 13
21 25 11 7 -5 15 -7 18 -3z m54 -9 c-3 -8 -6 -5 -6 6 -1 11 2 17 5 13 3 -3 4
-12 1 -19z m93 -10 c0 -5 -9 -3 -20 4 -11 7 -20 16 -20 20 0 5 9 3 20 -4 11
-7 20 -16 20 -20z m-299 8 c5 3 9 1 9 -5 0 -5 -4 -13 -10 -16 -5 -3 -10 -4
-10 -1 0 2 -2 10 -3 18 -2 7 -2 10 0 5 3 -4 9 -5 14 -1z m-45 -111 c-8 -21
-46 -19 -46 3 0 13 2 14 9 3 11 -17 31 -6 32 17 0 11 2 12 6 4 3 -7 2 -19 -1
-27z m34 14 c0 -11 -4 -17 -10 -14 -5 3 -10 13 -10 21 0 8 5 14 10 14 6 0 10
-9 10 -21z m70 0 c0 -11 -4 -17 -10 -14 -5 3 -10 13 -10 21 0 8 5 14 10 14 6
0 10 -9 10 -21z m73 9 c4 -10 8 -9 16 2 9 13 11 12 11 -6 0 -15 -6 -20 -22
-19 -13 1 -24 9 -26 18 -4 20 14 23 21 5z m78 -5 c13 -15 12 -15 -8 -4 -24 12
-29 21 -14 21 5 0 15 -7 22 -17z m99 -4 c0 -5 -4 -9 -10 -9 -5 0 -10 7 -10 16
0 8 5 12 10 9 6 -3 10 -10 10 -16z m22 -4 c3 -13 1 -22 -3 -19 -9 5 -13 44 -5
44 2 0 6 -11 8 -25z m83 15 c3 -5 12 -7 20 -3 17 6 20 -13 4 -23 -6 -3 -15 -1
-19 6 -4 7 -13 9 -19 6 -6 -4 -11 0 -11 8 0 18 15 21 25 6z m58 -10 c-3 -11
-7 -20 -9 -20 -2 0 -4 9 -4 20 0 11 4 20 9 20 5 0 7 -9 4 -20z m34 -12 c-3 -7
-5 -2 -5 12 0 14 2 19 5 13 2 -7 2 -19 0 -25z m-140 0 c-3 -8 -6 -5 -6 6 -1
11 2 17 5 13 3 -3 4 -12 1 -19z m-337 -89 c0 -6 -4 -7 -10 -4 -5 3 -10 11 -10
16 0 6 5 7 10 4 6 -3 10 -11 10 -16z m37 5 c5 -13 7 -13 14 -2 6 9 9 6 9 -10
0 -23 0 -23 -25 -5 -26 19 -32 33 -15 33 6 0 13 -7 17 -16z m77 1 c-4 -8 -8
-15 -10 -15 -2 0 -4 7 -4 15 0 8 4 15 10 15 5 0 7 -7 4 -15z m80 -1 c9 -23 8
-24 -14 -24 -19 0 -27 20 -13 33 11 11 20 8 27 -9z m130 1 c-4 -8 -8 -15 -10
-15 -2 0 -4 7 -4 15 0 8 4 15 10 15 5 0 7 -7 4 -15z m-431 -15 c3 -11 1 -18
-4 -14 -5 3 -9 12 -9 20 0 20 7 17 13 -6z m350 0 c3 -11 1 -18 -4 -14 -5 3 -9
12 -9 20 0 20 7 17 13 -6z"></path>
<path d="M3289 2342 c-25 -26 -56 -66 -68 -89 -22 -44 -53 -68 -76 -59 -8 3
-28 0 -45 -6 -23 -8 -35 -7 -43 1 -23 23 -38 13 -32 -22 5 -27 2 -37 -20 -57
-45 -42 -57 -77 -63 -185 l-5 -101 -141 -46 c-249 -82 -1450 -470 -1468 -475
-10 -3 -18 -9 -18 -14 0 -4 111 -44 248 -88 1398 -452 1927 -621 1943 -621 10
0 183 54 386 119 202 66 689 224 1082 350 392 127 716 233 719 236 3 3 3 7 1
9 -4 4 -719 236 -1639 532 -217 69 -397 128 -399 130 -2 2 4 22 14 44 14 31
24 40 43 40 50 0 102 -24 179 -81 78 -59 78 -59 149 -59 41 0 77 5 88 13 16
12 15 18 -18 91 -21 45 -36 94 -36 116 0 23 -8 48 -21 64 -11 14 -17 31 -13
37 12 19 85 83 111 97 14 8 23 16 20 18 -8 8 -191 -18 -217 -31 -39 -20 -163
-8 -240 22 -103 40 -163 53 -273 57 l-102 4 -46 -46z m1031 -672 c371 -120
783 -253 915 -295 132 -43 244 -80 249 -83 5 -3 -80 -34 -190 -70 -109 -35
-422 -136 -694 -224 -863 -279 -1082 -348 -1102 -348 -31 0 -1988 634 -1980
641 4 4 120 43 257 87 138 44 439 141 670 216 232 75 423 136 426 136 9 0 -8
-124 -20 -150 -17 -36 0 -76 35 -84 38 -10 49 5 33 48 -19 53 10 141 54 164
18 10 48 33 67 53 20 21 56 43 85 53 49 16 49 16 74 -9 27 -26 39 -96 40 -225
1 -75 11 -90 58 -90 36 0 42 14 18 46 -15 19 -22 129 -7 122 4 -2 20 -10 35
-18 25 -12 32 -12 55 1 36 20 39 62 13 149 -25 82 -25 80 -5 80 12 0 14 -7 10
-28 -5 -22 7 -47 69 -140 53 -80 75 -123 75 -145 1 -26 9 -37 41 -60 22 -15
44 -37 50 -50 19 -41 76 -68 133 -65 65 4 67 22 6 58 -63 37 -144 135 -165
201 -10 30 -31 89 -48 132 l-30 77 24 26 c18 19 30 24 49 19 14 -4 329 -105
700 -225z"></path>
<path d="M3758 1605 c13 -26 72 -82 72 -69 0 6 -19 28 -41 49 -23 22 -37 31
-31 20z"></path>
<path d="M3870 1451 c11 -29 22 -73 25 -97 4 -47 11 -64 26 -64 18 0 -33 181
-56 200 -13 11 -12 2 5 -39z"></path>
<path d="M3954 1198 c9 -13 31 -51 48 -86 16 -35 33 -61 35 -58 15 15 -65 166
-88 166 -7 0 -5 -9 5 -22z"></path>
<path d="M894 337 c-3 -9 -4 -28 -2 -44 3 -26 7 -28 51 -31 l48 -3 -3 43 c-4
51 -32 63 -33 14 0 -41 -23 -45 -27 -5 -3 35 -24 50 -34 26z"></path>
<path d="M1097 344 c-3 -3 -3 -12 0 -20 7 -19 -11 -18 -27 1 -7 8 -21 15 -31
15 -15 0 -19 -7 -19 -34 0 -19 5 -38 10 -41 6 -3 10 3 10 14 0 26 12 27 35 1
25 -28 37 -21 41 23 3 34 -6 54 -19 41z"></path>
<path d="M1312 339 c-19 -7 -23 -15 -20 -41 3 -35 38 -56 36 -21 -1 10 2 30 5
46 4 15 6 27 5 26 -2 0 -13 -4 -26 -10z"></path>
<path d="M4139 348 c-1 -2 -3 -20 -4 -40 -4 -39 9 -58 27 -40 7 7 16 7 29 -1
23 -14 36 -3 20 17 -7 8 -10 20 -6 26 10 16 -14 40 -41 40 -13 0 -24 -1 -25
-2z"></path>
<path d="M4252 334 c-27 -18 -28 -36 -4 -57 35 -32 112 -11 112 31 0 16 -41
42 -65 42 -11 0 -31 -7 -43 -16z m66 -27 c4 -20 -25 -34 -40 -19 -15 15 -1 44
19 40 10 -2 19 -11 21 -21z"></path>
<path d="M4370 342 c0 -4 4 -12 9 -17 5 -6 11 -21 13 -34 5 -37 28 -39 28 -2
0 16 5 33 10 36 21 13 9 25 -25 25 -19 0 -35 -4 -35 -8z"></path>
<path d="M4469 346 c-3 -3 -3 -23 -1 -45 4 -38 7 -41 33 -41 16 0 29 5 29 10
0 6 -6 10 -14 10 -12 0 -13 7 -5 32 5 18 9 34 9 35 0 5 -46 3 -51 -1z"></path>
<path d="M4562 334 c-12 -8 -22 -21 -22 -28 0 -22 35 -46 68 -46 39 0 43 17 5
22 -35 4 -45 37 -14 45 12 3 21 9 21 14 0 14 -34 10 -58 -7z"></path>
<path d="M4660 342 c0 -4 4 -12 9 -17 5 -6 11 -21 13 -34 5 -37 28 -39 28 -2
0 16 5 33 10 36 21 13 9 25 -25 25 -19 0 -35 -4 -35 -8z"></path>
<path d="M1142 303 c4 -52 28 -56 28 -4 0 30 -4 41 -16 41 -11 0 -14 -9 -12
-37z"></path>
<path d="M1219 335 c-9 -8 3 -75 12 -75 10 0 14 8 23 53 5 22 3 27 -12 27 -10
0 -21 -2 -23 -5z"></path>
<path d="M2240 301 c0 -33 3 -41 19 -41 10 0 21 9 24 20 3 11 13 20 22 20 10
0 15 7 13 18 -2 12 -14 18 -41 20 l-37 3 0 -40z"></path>
<path d="M2365 332 c-9 -9 -5 -61 5 -67 6 -4 17 -2 25 5 9 7 15 8 20 0 13 -21
22 -9 20 27 -1 35 -3 38 -32 39 -18 1 -35 -1 -38 -4z"></path>
<path d="M2474 327 c-9 -25 0 -62 16 -62 10 0 15 10 15 34 0 36 -21 54 -31 28z"></path>
<path d="M2555 326 c-12 -40 -11 -55 2 -60 23 -9 34 3 27 30 -4 14 -2 24 5 24
6 0 11 -5 11 -11 0 -6 6 -9 13 -6 6 2 12 10 12 18 0 17 -65 22 -70 5z"></path>
<path d="M2655 310 c-21 -41 -20 -53 5 -40 14 8 26 8 41 0 30 -16 35 -5 16 35
-20 43 -42 45 -62 5z"></path>
<path d="M2754 326 c-3 -8 -4 -24 -2 -36 2 -18 11 -23 39 -26 35 -3 36 -2 35
34 -2 34 -4 37 -34 40 -21 2 -34 -2 -38 -12z"></path>
<path d="M2854 327 c-9 -25 0 -62 16 -62 10 0 15 10 15 34 0 36 -21 54 -31 28z"></path>
<path d="M4030 301 c0 -30 4 -41 15 -41 8 0 15 7 15 15 0 9 12 20 26 25 35 14
25 34 -19 38 l-37 3 0 -40z"></path>
<path d="M5510 302 c0 -39 0 -39 38 -39 38 0 39 0 37 36 -1 34 -3 36 -38 39
-37 3 -37 3 -37 -36z"></path>
<path d="M5630 300 c0 -34 3 -41 18 -38 12 2 17 13 17 38 0 25 -5 36 -17 38
-15 3 -18 -4 -18 -38z"></path>
<path d="M5710 331 c0 -6 5 -11 10 -11 6 0 10 -11 10 -24 0 -22 16 -44 25 -35
2 2 5 20 7 39 3 32 0 35 -24 38 -16 2 -28 -1 -28 -7z"></path>
<path d="M5811 306 c-26 -42 -26 -50 -1 -36 11 6 25 8 31 4 7 -4 30 -8 54 -10
l42 -2 -2 36 c-1 45 -28 52 -33 10 -4 -36 -13 -35 -34 2 -22 38 -32 38 -57 -4z"></path>
<path d="M5995 327 c-9 -22 -2 -62 10 -60 6 1 11 14 13 29 4 32 -14 56 -23 31z"></path>
<path d="M6061 306 c-26 -42 -26 -50 -1 -36 14 7 26 8 39 0 30 -15 34 -13 26
17 -7 30 -23 53 -35 53 -5 0 -18 -15 -29 -34z"></path>
<path d="M6156 313 c10 -46 13 -53 24 -53 5 0 10 14 10 30 0 17 5 30 10 30 6
0 10 5 10 10 0 6 -14 10 -30 10 -28 0 -30 -2 -24 -27z"></path>
<path d="M6247 334 c-4 -4 -7 -23 -7 -41 0 -27 4 -34 18 -31 12 2 17 13 17 37
0 33 -13 49 -28 35z"></path>
<path d="M3970 70 c0 -5 5 -10 10 -10 6 0 10 5 10 10 0 6 -4 10 -10 10 -5 0
-10 -4 -10 -10z"></path>
</g>
</svg>